<svg width="512" height="512" viewBox="0 0 512 512" xmlns="http://www.w3.org/2000/svg">
  <defs>
    <linearGradient id="gradient" x1="0%" y1="0%" x2="100%" y2="100%">
      <stop offset="0%" style="stop-color:#3b82f6;stop-opacity:1" />
      <stop offset="100%" style="stop-color:#1d4ed8;stop-opacity:1" />
    </linearGradient>
  </defs>

  <!-- Background Circle -->
  <circle cx="256" cy="256" r="240" fill="url(#gradient)" stroke="#1e40af" stroke-width="8"/>

  <!-- AAE Logo -->
  <g transform="translate(256, 256)">
    <!-- A -->
    <path d="M-80,-60 L-40,-60 L-20,-20 L20,-20 L40,-60 L80,-60 L60,-20 L40,-20 L20,20 L-20,20 L-40,-20 L-60,-20 Z" fill="white" stroke="white" stroke-width="2"/>

    <!-- A -->
    <path d="M-20,-60 L0,-60 L20,-20 L40,-20 L60,-60 L80,-60 L60,-20 L40,-20 L20,20 L0,20 L-20,-20 L-40,-20 Z" fill="white" stroke="white" stroke-width="2"/>

    <!-- E -->
    <path d="M20,-60 L80,-60 L80,-40 L40,-40 L40,-20 L60,-20 L60,0 L40,0 L40,20 L80,20 L80,40 L20,40 Z" fill="white" stroke="white" stroke-width="2"/>
  </g>

  <!-- Link Symbol -->
  <g transform="translate(256, 320)">
    <circle cx="-30" cy="0" r="20" fill="none" stroke="white" stroke-width="4"/>
    <circle cx="30" cy="0" r="20" fill="none" stroke="white" stroke-width="4"/>
    <path d="M-10,0 L10,0" stroke="white" stroke-width="4" stroke-linecap="round"/>
  </g>
</svg>
